<svg xmlns="http://www.w3.org/2000/svg" viewBox="0 0 480 360" width="480" height="360" role="img" aria-label="skoffroad mascot — a penguin driving a tricked-out Skrambler off-roader">
  <!-- skoffroad — S&K OFFROAD mascot. Cartoon penguin (Tux nod) in a lifted
       open-cage off-roader. Palette matches the marketing CSS:
         dirt-900 #0c0a09, mud-500 #d97706, mud-300 #fbbf24, bone #fafaf9, steel #a8a29e. -->
  <defs>
    <linearGradient id="sky" x1="0" y1="0" x2="0" y2="1">
      <stop offset="0%"  stop-color="#1c1411"/>
      <stop offset="100%" stop-color="#2b1d10"/>
    </linearGradient>
    <linearGradient id="body" x1="0" y1="0" x2="0" y2="1">
      <stop offset="0%"  stop-color="#fbbf24"/>
      <stop offset="55%" stop-color="#d97706"/>
      <stop offset="100%" stop-color="#92400e"/>
    </linearGradient>
    <linearGradient id="tire" x1="0" y1="0" x2="0" y2="1">
      <stop offset="0%"  stop-color="#2a2520"/>
      <stop offset="100%" stop-color="#0c0a09"/>
    </linearGradient>
    <linearGradient id="pengbody" x1="0" y1="0" x2="0" y2="1">
      <stop offset="0%"  stop-color="#3a3530"/>
      <stop offset="100%" stop-color="#0c0a09"/>
    </linearGradient>
    <radialGradient id="dust" cx="0.5" cy="0.5" r="0.5">
      <stop offset="0%" stop-color="#a8a29e" stop-opacity="0.55"/>
      <stop offset="100%" stop-color="#a8a29e" stop-opacity="0"/>
    </radialGradient>
  </defs>

  <!-- Background — warm dirt sky -->
  <rect x="0" y="0" width="480" height="360" fill="url(#sky)"/>

  <!-- Distant ridge silhouette -->
  <path d="M0 240 L60 220 L110 235 L170 215 L240 232 L310 218 L380 234 L440 222 L480 230 L480 360 L0 360 Z"
        fill="#1a1310"/>
  <!-- Foreground ground -->
  <ellipse cx="240" cy="320" rx="260" ry="32" fill="#0c0a09"/>
  <!-- Skid tire tracks on the ground -->
  <path d="M40 318 Q140 312 240 318 T440 318" fill="none" stroke="#1f1814" stroke-width="3" stroke-linecap="round"/>
  <path d="M40 326 Q140 320 240 326 T440 326" fill="none" stroke="#1f1814" stroke-width="3" stroke-linecap="round"/>

  <!-- Dust cloud behind the jeep -->
  <circle cx="80"  cy="295" r="58" fill="url(#dust)"/>
  <circle cx="125" cy="285" r="40" fill="url(#dust)"/>

  <!-- ============= TRICKED-OUT SKRAMBLER ============= -->
  <!-- Wheel wells (dark) -->
  <ellipse cx="155" cy="270" rx="42" ry="42" fill="#0c0a09"/>
  <ellipse cx="340" cy="270" rx="42" ry="42" fill="#0c0a09"/>

  <!-- 37" mud tires -->
  <circle cx="155" cy="270" r="38" fill="url(#tire)"/>
  <circle cx="340" cy="270" r="38" fill="url(#tire)"/>
  <!-- Tire treads (chunky) -->
  <g fill="#0c0a09" opacity="0.85">
    <g transform="translate(155 270)">
      <rect x="-3" y="-38" width="6" height="10" transform="rotate(0)"/>
      <rect x="-3" y="-38" width="6" height="10" transform="rotate(45)"/>
      <rect x="-3" y="-38" width="6" height="10" transform="rotate(90)"/>
      <rect x="-3" y="-38" width="6" height="10" transform="rotate(135)"/>
      <rect x="-3" y="-38" width="6" height="10" transform="rotate(180)"/>
      <rect x="-3" y="-38" width="6" height="10" transform="rotate(225)"/>
      <rect x="-3" y="-38" width="6" height="10" transform="rotate(270)"/>
      <rect x="-3" y="-38" width="6" height="10" transform="rotate(315)"/>
    </g>
    <g transform="translate(340 270)">
      <rect x="-3" y="-38" width="6" height="10" transform="rotate(0)"/>
      <rect x="-3" y="-38" width="6" height="10" transform="rotate(45)"/>
      <rect x="-3" y="-38" width="6" height="10" transform="rotate(90)"/>
      <rect x="-3" y="-38" width="6" height="10" transform="rotate(135)"/>
      <rect x="-3" y="-38" width="6" height="10" transform="rotate(180)"/>
      <rect x="-3" y="-38" width="6" height="10" transform="rotate(225)"/>
      <rect x="-3" y="-38" width="6" height="10" transform="rotate(270)"/>
      <rect x="-3" y="-38" width="6" height="10" transform="rotate(315)"/>
    </g>
  </g>
  <!-- Chrome rims -->
  <circle cx="155" cy="270" r="15" fill="#a8a29e"/>
  <circle cx="155" cy="270" r="9"  fill="#3a3530"/>
  <circle cx="340" cy="270" r="15" fill="#a8a29e"/>
  <circle cx="340" cy="270" r="9"  fill="#3a3530"/>

  <!-- Long-arm strut hint -->
  <line x1="155" y1="270" x2="155" y2="225" stroke="#3a3530" stroke-width="5" stroke-linecap="round"/>
  <line x1="340" y1="270" x2="340" y2="225" stroke="#3a3530" stroke-width="5" stroke-linecap="round"/>

  <!-- Body / chassis (lifted high so tires aren't in the fenders) -->
  <path d="M115 230 L120 195 L150 175 L210 165 L300 165 L355 175 L385 195 L390 230 L380 240 L115 240 Z"
        fill="url(#body)" stroke="#1f1814" stroke-width="2.5"/>

  <!-- Hood line -->
  <line x1="148" y1="195" x2="200" y2="170" stroke="#1f1814" stroke-width="2" opacity="0.6"/>

  <!-- Front bumper -->
  <rect x="378" y="218" width="22" height="20" rx="3" fill="#3a3530" stroke="#0c0a09" stroke-width="1.5"/>
  <!-- Winch housing (drum + motor) -->
  <rect x="380" y="222" width="18" height="12" rx="2" fill="#5a5450"/>
  <circle cx="395" cy="228" r="4" fill="#a8a29e"/>
  <!-- Bumper D-rings (two shackles welded to the face) -->
  <circle cx="384" cy="240" r="3" fill="#fbbf24" stroke="#0c0a09" stroke-width="1"/>
  <circle cx="397" cy="240" r="3" fill="#fbbf24" stroke="#0c0a09" stroke-width="1"/>
  <!-- Winch cable sagging from the fairlead exit to the right D-ring,
       where it terminates in a J-hook (matches the in-game model) -->
  <path d="M 399 228 Q 405 244 397 240" fill="none" stroke="#7a6a52" stroke-width="2" stroke-linecap="round"/>
  <!-- J-hook clipped to the right D-ring -->
  <path d="M 397 240 L 397 245 Q 397 248 394 248" fill="none" stroke="#1f1814" stroke-width="2.2" stroke-linecap="round"/>
  <circle cx="397" cy="240" r="1.4" fill="#1f1814"/>

  <!-- Headlight (round, glowing) -->
  <circle cx="372" cy="200" r="8" fill="#fef3c7" stroke="#1f1814" stroke-width="2"/>
  <circle cx="372" cy="200" r="3.5" fill="#fff"/>

  <!-- Grille slats -->
  <g stroke="#1f1814" stroke-width="1.5">
    <line x1="358" y1="208" x2="358" y2="228"/>
    <line x1="362" y1="208" x2="362" y2="228"/>
    <line x1="366" y1="208" x2="366" y2="228"/>
  </g>

  <!-- Open roll cage — top bar + uprights -->
  <path d="M150 175 L150 100 L300 100 L300 165" fill="none" stroke="#0c0a09" stroke-width="6" stroke-linejoin="round"/>
  <!-- Cage cross-bar -->
  <line x1="150" y1="135" x2="300" y2="135" stroke="#0c0a09" stroke-width="5"/>
  <!-- Roof light bar (4 spots) -->
  <rect x="170" y="92" width="110" height="12" rx="3" fill="#1f1814" stroke="#0c0a09" stroke-width="1.5"/>
  <g fill="#fef3c7">
    <circle cx="183" cy="98" r="3.5"/>
    <circle cx="208" cy="98" r="3.5"/>
    <circle cx="233" cy="98" r="3.5"/>
    <circle cx="258" cy="98" r="3.5"/>
  </g>
  <!-- Light glow -->
  <g fill="#fbbf24" opacity="0.3">
    <circle cx="183" cy="98" r="9"/>
    <circle cx="208" cy="98" r="9"/>
    <circle cx="233" cy="98" r="9"/>
    <circle cx="258" cy="98" r="9"/>
  </g>

  <!-- Mud splatter on lower body -->
  <g fill="#4a3014" opacity="0.6">
    <circle cx="180" cy="232" r="3"/>
    <circle cx="195" cy="236" r="2"/>
    <circle cx="220" cy="234" r="4"/>
    <circle cx="260" cy="233" r="2.5"/>
    <circle cx="290" cy="237" r="3"/>
    <circle cx="320" cy="235" r="2"/>
  </g>

  <!-- ============= PENGUIN DRIVER (Tux nod) ============= -->
  <!-- Body — sits in the open cab -->
  <ellipse cx="225" cy="172" rx="40" ry="44" fill="url(#pengbody)"/>
  <!-- White belly -->
  <ellipse cx="225" cy="180" rx="26" ry="32" fill="#fafaf9"/>
  <!-- Head — slightly tilted -->
  <ellipse cx="225" cy="125" rx="32" ry="30" fill="url(#pengbody)"/>
  <!-- Face mask (white) -->
  <ellipse cx="225" cy="132" rx="22" ry="18" fill="#fafaf9"/>
  <!-- Beak — orange triangle -->
  <path d="M213 137 L237 137 L225 148 Z" fill="#d97706" stroke="#92400e" stroke-width="1.5"/>
  <!-- Goggles strap (cartoon black band) -->
  <rect x="193" y="116" width="64" height="9" rx="2" fill="#1f1814"/>
  <!-- Goggles lenses (yellow tinted) -->
  <ellipse cx="212" cy="120" rx="9" ry="7" fill="#fbbf24" stroke="#1f1814" stroke-width="2"/>
  <ellipse cx="238" cy="120" rx="9" ry="7" fill="#fbbf24" stroke="#1f1814" stroke-width="2"/>
  <!-- Goggle highlight -->
  <ellipse cx="210" cy="118" rx="3" ry="2" fill="#fff" opacity="0.7"/>
  <ellipse cx="236" cy="118" rx="3" ry="2" fill="#fff" opacity="0.7"/>

  <!-- Left wing/flipper gripping wheel -->
  <ellipse cx="195" cy="180" rx="14" ry="20" fill="url(#pengbody)" transform="rotate(-25 195 180)"/>
  <!-- Right wing -->
  <ellipse cx="258" cy="178" rx="14" ry="22" fill="url(#pengbody)" transform="rotate(20 258 178)"/>

  <!-- Steering wheel -->
  <circle cx="262" cy="200" r="12" fill="none" stroke="#0c0a09" stroke-width="4"/>
  <line x1="250" y1="200" x2="274" y2="200" stroke="#0c0a09" stroke-width="3"/>
  <line x1="262" y1="188" x2="262" y2="212" stroke="#0c0a09" stroke-width="3"/>

  <!-- Orange feet sticking out at the bottom (cute) -->
  <ellipse cx="218" cy="215" rx="8" ry="5" fill="#d97706" stroke="#92400e" stroke-width="1.5"/>
  <ellipse cx="234" cy="215" rx="8" ry="5" fill="#d97706" stroke="#92400e" stroke-width="1.5"/>

  <!-- Cheeky scarf flapping back -->
  <path d="M198 145 Q170 152 152 162 Q148 170 158 172 Q175 168 200 158 Z" fill="#d97706" stroke="#92400e" stroke-width="1.5"/>
</svg>
